<svg data-v-0dd9719b="" version="1.0" xmlns="http://www.w3.org/2000/svg" xmlns:xlink="http://www.w3.org/1999/xlink" width="100%" height="100%" viewBox="0 0 340.000000 250.000000" preserveAspectRatio="xMidYMid meet" color-interpolation-filters="sRGB" style="margin: auto;"> <rect data-v-0dd9719b="" x="0" y="0" width="100%" height="100%" fill="#fff" fill-opacity="1" class="background"></rect> <rect data-v-0dd9719b="" x="0" y="0" width="100%" height="100%" fill="url(#watermark)" fill-opacity="1" class="watermarklayer"></rect> <g data-v-0dd9719b="" fill="#3699ea" class="icon-text-wrapper icon-svg-group iconsvg" transform="translate(55.86000061035156,96.67753791814367)"><g class="iconsvg-imagesvg" transform="translate(0,0)"><g><rect fill="#3699ea" fill-opacity="0" stroke-width="2" x="0" y="0" width="60" height="56.644921310763486" class="image-rect"></rect> <svg x="0" y="0" width="60" height="56.644921310763486" filtersec="colorsb17683397" class="image-svg-svg primary" style="overflow: visible;"><svg xmlns="http://www.w3.org/2000/svg" viewBox="-0.003525275969877839 -0.0038033658638596535 264.3553466796875 249.5738983154297"><g><g fill="#3699ea"><path d="M88.26 14.26a19 19 0 0 0 18.69 5.47l65.67-17a1.38 1.38 0 0 0-.37-2.73L87.36 1a5 5 0 0 0-3.63 8.44zM204.69 14.78a10.81 10.81 0 0 0-14-7l-65.62 23.58a5.34 5.34 0 0 0-.92 9.62l98.48 58.41a4.39 4.39 0 0 0 6.43-5.06zM103 177.28a6.6 6.6 0 0 0 9.88 5.69l99.32-57.07.09-.05a6.62 6.62 0 0 0 .08-11.44L112.1 54.94a6.42 6.42 0 0 0-9.7 5.55zM263.73 136.83a5.62 5.62 0 0 0-5.94-8.11 18.67 18.67 0 0 0-14.57 12.6l-27.67 85.05a.92.92 0 0 0 1.69.7zM258.31 113.62a4.34 4.34 0 0 0 4.7-6.3L217.6 22.4a.76.76 0 0 0-1.39.63L246 103.09a16.74 16.74 0 0 0 12.31 10.53zM75.55 180.29a5.87 5.87 0 0 0 9.24-4.84l-.53-112.18A5.5 5.5 0 0 0 75.34 59L3.2 116.43A8.46 8.46 0 0 0 3.62 130zM2.32 99.68a1.64 1.64 0 0 0 2.53 2l66.77-62a11.35 11.35 0 0 0 .6-16l-7.49-8.08A8.45 8.45 0 0 0 51.25 17zM107.85 219.33a15.23 15.23 0 0 0-17.45 5.08l-10.09 13.38a5.83 5.83 0 0 0 4.51 9.35l93.49 2.43a1.9 1.9 0 0 0 .71-3.67zM226.49 147.65a4.73 4.73 0 0 0-6.94-5.3l-95.85 55.31a5.83 5.83 0 0 0 .5 10.36l66.92 30.4a9.55 9.55 0 0 0 13.2-6.28zM74.21 215.48a11.75 11.75 0 0 0-2.06-16.19L6 146.19a2.07 2.07 0 0 0-3.08 2.67l47.64 80.84a7.54 7.54 0 0 0 12.54.68z"></path></g></g></svg></svg> <!----></g></g> <g transform="translate(67,0.9112110137939453)"><g data-gra="path-name" fill-rule="" class="tp-name iconsvg-namesvg" transform="translate(0,0)"><g transform="scale(1)"><g><path d="M33.93-36L33.93-30.96 38.61-30.96 38.61-24.88 33.93-24.88 33.93 3.33 7.83 3.33 7.83-24.88 3.06-24.88 3.06-30.96 7.83-30.96 7.83-36 14.35-36 14.35-30.96 27.4-30.96 27.4-36 33.93-36ZM14.35-24.88L14.35-17.14 27.4-17.14 27.4-24.88 14.35-24.88ZM27.4-11.07L14.35-11.07 14.35-2.75 27.4-2.75 27.4-11.07ZM65.79-33.7L78.21-33.7 78.21-26.82 80.28-26.82 80.28-20.65 78.21-20.65 78.21-13.72 65.79-13.72 65.79 3.55 59.27 3.55 59.27-13.72 46.39-13.72 46.39-19.3 59.27-19.3 59.27-21.2 44.86-21.2 44.86-26.28 59.27-26.28 59.27-28.13 46.39-28.13 46.39-33.7 59.27-33.7 59.27-35.95 65.79-35.95 65.79-33.7ZM71.91-26.28L71.91-28.13 65.79-28.13 65.79-26.28 71.91-26.28ZM71.91-21.2L65.79-21.2 65.79-19.3 71.91-19.3 71.91-21.2ZM52.29-12.55L52.29 3.55 46.26 3.55 46.26-12.55 52.29-12.55ZM78.79-12.51L78.79 3.55 72.72 3.55 72.72-12.51 78.79-12.51ZM57.87-11.7L57.87 1.03 53.64 1.03 53.64-11.7 57.87-11.7ZM71.37-11.7L71.37 0.94 67.19 0.94 67.19-11.7 71.37-11.7ZM107.59-35.95L107.59-25.7 121.99-25.7 121.99-19.62 107.59-19.62 121.91-0.09 116.68 3.73 104.63-12.82 92.34 3.82 86.98 0.22 101.07-18.77 101.07-19.62 86.53-19.62 86.53-25.7 101.07-25.7 101.07-35.95 107.59-35.95ZM106.02-5.31L106.02 3.55 99.72 3.55 99.72-5.31 106.02-5.31ZM157.27-24.34L149.22-24.34 149.22-19.08 164.34-15.25 163.12-9.81 145.93-14.26 128.83-9.54 127.53-15.03 142.69-19.08 142.69-24.34 134.64-24.34 134.64-18.99 128.34-18.99 128.34-28.93 142.69-28.93 142.69-30.06 128.7-30.06 128.7-35.14 163.21-35.14 163.21-30.06 149.22-30.06 149.22-28.93 163.57-28.93 163.57-18.95 157.27-18.95 157.27-24.34ZM141.07-18.99L136.26-18.99 136.26-23.31 141.07-23.31 141.07-18.99ZM150.84-23.31L155.65-23.31 155.65-18.99 150.84-18.99 150.84-23.31ZM142.69-9.72L142.69-12.33 149.22-12.33 149.22-9.72 161.82-9.72 161.82-5.71 158.53-1.62 161.73-1.4 161.41 3.87 131.22 1.93 131.53-3.33 151.2-2.07 153.45-4.63 129.91-4.63 129.91-9.72 142.69-9.72Z" transform="translate(-3.059999942779541, 36)"></path></g> <!----> <!----> <!----> <!----> <!----> <!----> <!----></g></g> <g data-gra="path-slogan" fill-rule="" class="tp-slogan iconsvg-slogansvg" fill="#3699ea" transform="translate(35.1944465637207,45.869998931884766)"><!----> <!----> <g transform="scale(1, 1)"><g transform="scale(1)"><path d="M7.31-3.61L4.69-3.61L4.69-4.59L8.44-4.59L8.44 0L7.69 0L7.41-1.08Q6.42 0.09 4.59 0.14L4.59 0.14Q2.86 0.14 1.92-0.75L1.92-0.75Q0.52-2.06 0.56-4.36L0.56-4.36Q0.89-8.63 4.64-8.81L4.64-8.81Q7.83-8.63 8.30-6L8.30-6L7.17-6Q6.70-7.78 4.59-7.83L4.59-7.83Q1.92-7.64 1.78-4.31L1.78-4.31Q1.78-0.75 4.64-0.75L4.64-0.75Q5.67-0.75 6.42-1.31L6.42-1.31Q7.36-2.06 7.31-3.61L7.31-3.61ZM15.89 0L15.05-2.48L11.58-2.48L10.69 0L9.52 0L12.75-8.58L14.06-8.58L17.16 0L15.89 0ZM13.31-7.31L11.95-3.52L14.63-3.52L13.36-7.31L13.31-7.31ZM19.59-8.58L23.91-1.64L23.91-8.58L25.03-8.58L25.03 0L23.72 0L19.36-6.94L19.31-6.94L19.31 0L18.19 0L18.19-8.58L19.59-8.58ZM33.09-6.09L33.09-6.09L32.02-6.09Q31.92-7.73 29.86-7.83L29.86-7.83Q27.94-7.78 27.94-6.33L27.94-6.33Q27.94-5.39 28.97-5.25L28.97-5.25L31.41-4.69Q33.33-4.22 33.33-2.34L33.33-2.34Q33.28 0.05 29.95 0.14L29.95 0.14Q28.13 0.14 27.38-0.61L27.38-0.61Q26.44-1.31 26.48-2.77L26.48-2.77L27.61-2.77Q27.66-0.80 29.95-0.75L29.95-0.75Q32.20-0.80 32.25-2.20L32.25-2.20Q32.44-3.38 30.38-3.75L30.38-3.75L28.59-4.13Q26.77-4.64 26.77-6.19L26.77-6.19Q26.91-8.72 29.77-8.81L29.77-8.81Q33-8.81 33.09-6.09ZM40.45-3.19L40.45-8.58L41.63-8.58L41.63-3.05Q41.48 0.05 38.11 0.14L38.11 0.14Q34.97 0.05 34.83-2.86L34.83-2.86L34.83-8.58L36-8.58L36-3.19Q36.05-0.84 38.16-0.80L38.16-0.80Q40.45-0.84 40.45-3.19L40.45-3.19ZM48.94-7.59L46.03-7.59L46.03-8.58L52.97-8.58L52.97-7.59L50.06-7.59L50.06 0L48.94 0L48.94-7.59ZM59.67 0L58.83-2.48L55.36-2.48L54.47 0L53.30 0L56.53-8.58L57.84-8.58L60.94 0L59.67 0ZM57.09-7.31L55.73-3.52L58.41-3.52L57.14-7.31L57.09-7.31ZM62.16-8.58L63.33-8.58L63.33 0L62.16 0L62.16-8.58ZM65.30-8.58L66.47-8.58L66.47-1.03L70.83-1.03L70.83 0L65.30 0L65.30-8.58ZM72.14-8.58L73.31-8.58L73.31 0L72.14 0L72.14-8.58ZM76.69-8.58L81-1.64L81-8.58L82.13-8.58L82.13 0L80.81 0L76.45-6.94L76.41-6.94L76.41 0L75.28 0L75.28-8.58L76.69-8.58ZM90.33-3.61L87.70-3.61L87.70-4.59L91.45-4.59L91.45 0L90.70 0L90.42-1.08Q89.44 0.09 87.61 0.14L87.61 0.14Q85.88 0.14 84.94-0.75L84.94-0.75Q83.53-2.06 83.58-4.36L83.58-4.36Q83.91-8.63 87.66-8.81L87.66-8.81Q90.84-8.63 91.31-6L91.31-6L90.19-6Q89.72-7.78 87.61-7.83L87.61-7.83Q84.94-7.64 84.80-4.31L84.80-4.31Q84.80-0.75 87.66-0.75L87.66-0.75Q88.69-0.75 89.44-1.31L89.44-1.31Q90.38-2.06 90.33-3.61L90.33-3.61Z" transform="translate(-0.5609879032258065, 8.8125)"></path></g></g></g></g></g><defs v-gra="od"></defs></svg>